<svg width="87" height="75" viewBox="0 0 87 75" fill="none" xmlns="http://www.w3.org/2000/svg">
<path d="M0 0H49.5C70.2107 0 87 16.7893 87 37.5V75H42.5C19.0279 75 0 55.9721 0 32.5V0Z" fill="#39DB4A"/>
<g clip-path="url(#clip0_116_82)">
<path d="M48.5 27.9165C47.3739 27.934 46.2724 28.2484 45.3067 28.8278C44.3411 29.4072 43.5453 30.2312 43 31.2165C42.4546 30.2312 41.6589 29.4072 40.6932 28.8278C39.7275 28.2484 38.626 27.934 37.5 27.9165C35.7049 27.9945 34.0137 28.7798 32.7958 30.1007C31.5778 31.4217 30.9322 33.171 31 34.9665C31 39.5135 35.786 44.4795 39.8 47.8465C40.6962 48.5996 41.8293 49.0125 43 49.0125C44.1706 49.0125 45.3038 48.5996 46.2 47.8465C50.214 44.4795 55 39.5135 55 34.9665C55.0677 33.171 54.4221 31.4217 53.2042 30.1007C51.9863 28.7798 50.295 27.9945 48.5 27.9165Z" fill="white"/>
</g>
<defs>
<clipPath id="clip0_116_82">
<rect width="24" height="24" fill="white" transform="translate(31 26)"/>
</clipPath>
</defs>
</svg>
